<?xml version="1.0" encoding="utf-8"?>
<!-- Generator: Adobe Illustrator 23.0.1, SVG Export Plug-In . SVG Version: 6.00 Build 0)  -->
<svg version="1.1" id="Capa_1" xmlns="http://www.w3.org/2000/svg" xmlns:xlink="http://www.w3.org/1999/xlink" x="0px" y="0px"
	 viewBox="0 0 512 512" style="enable-background:new 0 0 512 512;" xml:space="preserve">
<style type="text/css">
	.st0{fill:#F26267;}
</style>
<g>
	<g>
		<polygon class="st0" points="339.39,258.62 512,367.74 512,144.9 		"/>
	</g>
</g>
<g>
	<g>
		<polygon class="st0" points="0,144.9 0,367.74 172.61,258.62 		"/>
	</g>
</g>
<g>
	<g>
		<path class="st0" d="M480,80H32C16.03,80,3.36,91.9,0.96,107.23L256,275.26l255.04-168.03C508.64,91.9,495.97,80,480,80z"/>
	</g>
</g>
<g>
	<g>
		<path class="st0" d="M310.08,277.95l-45.28,29.82c-2.69,1.76-5.73,2.62-8.8,2.62s-6.11-0.86-8.8-2.62l-45.28-29.86L1.02,404.99
			C3.49,420.19,16.1,432,32,432h448c15.9,0,28.51-11.81,30.98-27.01L310.08,277.95z"/>
	</g>
</g>
</svg>
