<?xml version="1.0" encoding="utf-8"?>
<!-- Generator: Adobe Illustrator 23.0.1, SVG Export Plug-In . SVG Version: 6.00 Build 0)  -->
<svg version="1.1" id="Layer_1" xmlns="http://www.w3.org/2000/svg" xmlns:xlink="http://www.w3.org/1999/xlink" x="0px" y="0px"
	 viewBox="0 0 512 512" style="enable-background:new 0 0 512 512;" xml:space="preserve">
<style type="text/css">
	.st0{fill:none;}
	.st1{fill:#F26267;}
</style>
<g>
	<circle class="st0" cx="258" cy="175" r="46.36"/>
	<path class="st0" d="M258,35.91C181.22,35.99,118.99,98.22,118.91,175c0,60.27,91,209.29,139.09,281.54
		C306.09,384.27,397.09,235.18,397.09,175C397.01,98.22,334.78,35.99,258,35.91z M258,252.27c-42.68,0-77.27-34.6-77.27-77.27
		s34.6-77.27,77.27-77.27c42.68,0,77.27,34.6,77.27,77.27C335.22,217.66,300.66,252.22,258,252.27z"/>
	<path class="st1" d="M258,97.73c-42.68,0-77.27,34.6-77.27,77.27s34.6,77.27,77.27,77.27c42.66-0.05,77.22-34.62,77.27-77.27
		C335.27,132.32,300.68,97.73,258,97.73z M258,221.36c-25.61,0-46.36-20.76-46.36-46.36s20.76-46.36,46.36-46.36
		s46.36,20.76,46.36,46.36S283.61,221.36,258,221.36z"/>
	<path class="st0" d="M258,35.91C181.22,35.99,118.99,98.22,118.91,175c0,60.27,91,209.29,139.09,281.54
		C306.09,384.27,397.09,235.18,397.09,175C397.01,98.22,334.78,35.99,258,35.91z"/>
	<path class="st1" d="M276.7,484.09C305.77,441.05,428,255.27,428,175C428,81.11,351.89,5,258,5S88,81.11,88,175
		c0,80.27,122.23,266.05,151.3,309.09l0,0L258,515l0,0L276.7,484.09L276.7,484.09z M118.91,175C118.99,98.22,181.22,35.99,258,35.91
		C334.78,35.99,397.01,98.22,397.09,175c0,60.18-91,209.27-139.09,281.54C209.91,384.29,118.91,235.27,118.91,175z"/>
</g>
</svg>
