<?xml version="1.0" encoding="utf-8"?>
<!-- Generator: Adobe Illustrator 23.0.1, SVG Export Plug-In . SVG Version: 6.00 Build 0)  -->
<svg version="1.1" id="Layer_1" xmlns="http://www.w3.org/2000/svg" xmlns:xlink="http://www.w3.org/1999/xlink" x="0px" y="0px"
	 viewBox="0 0 468.25 468.21" style="enable-background:new 0 0 468.25 468.21;" xml:space="preserve">
<style type="text/css">
	.st0{fill:#F26267;}
</style>
<g id="Page-1">
	<g transform="translate(-1)">
		<path id="Shape" class="st0" d="M194.91,274.34c-44.69-44.69-54.78-89.38-57.06-107.29c-0.64-4.95,1.07-9.92,4.61-13.43
			l36.17-36.15c5.32-5.32,6.26-13.6,2.28-19.98L123.32,8.07c-4.41-7.06-13.47-9.61-20.92-5.89L9.96,45.72
			c-6.02,2.97-9.56,9.36-8.88,16.04c4.84,46.01,24.9,159.13,136.07,270.3s224.26,131.22,270.3,136.07
			c6.68,0.68,13.08-2.86,16.04-8.88l43.54-92.44c3.71-7.43,1.18-16.46-5.85-20.88l-89.41-57.57c-6.37-3.99-14.66-3.05-19.98,2.26
			l-36.15,36.17c-3.52,3.54-8.48,5.25-13.43,4.61C284.29,329.12,239.6,319.03,194.91,274.34L194.91,274.34z"/>
		<path class="st0" d="M372.37,250.26c-8.92,0-16.15-7.23-16.15-16.15c-0.08-66.85-54.25-121.02-121.09-121.09
			c-8.92,0-16.15-7.23-16.15-16.15s7.23-16.15,16.15-16.15c84.67,0.09,153.29,68.71,153.38,153.38
			C388.52,243.03,381.29,250.26,372.37,250.26z"/>
		<path class="st0" d="M453.1,250.26c-8.92,0-16.15-7.23-16.15-16.15C436.83,122.7,346.55,32.42,235.14,32.29
			c-8.92,0-16.15-7.23-16.15-16.15S226.22,0,235.14,0C364.37,0.14,469.1,104.87,469.25,234.11c0,4.28-1.7,8.39-4.73,11.42
			C461.49,248.55,457.38,250.26,453.1,250.26z"/>
	</g>
</g>
</svg>
